<svg width="512" height="512" viewBox="0 0 512 512" fill="none" xmlns="http://www.w3.org/2000/svg">
  <rect width="512" height="512" rx="84" fill="#000000"/>
  <path d="M77 142L127 131V379L77 390V142Z" fill="#E50914"/>
  <path d="M127 131L215 139C239 237 262 309 286 381L236 375C217 315 200 255 182 193V367L127 379V131Z" fill="#B20710"/>
  <path d="M435 142V188L356 185V235L428 239V285L356 281V333L435 336V381L301 374V138L435 142Z" fill="#E50914"/>
  <path d="M182 193C200 255 217 315 236 375L286 381C262 309 239 237 215 139L182 193Z" fill="#F9373F" fill-opacity="0.45"/>
</svg>
